Coordinates
version=1
nRows=19
nColumns=24
inDegrees=yes

Units are S.I. units (second, meters, Newtons, ...)
Angles are in degrees.

endheader
time	pelvis_tilt	pelvis_list	pelvis_rotation	pelvis_tx	pelvis_ty	pelvis_tz	hip_flexion_r	hip_adduction_r	hip_rotation_r	knee_angle_r	ankle_angle_r	subtalar_angle_r	mtp_angle_r	hip_flexion_l	hip_adduction_l	hip_rotation_l	knee_angle_l	ankle_angle_l	subtalar_angle_l	mtp_angle_l	lumbar_extension	lumbar_bending	lumbar_rotation
      0.70400000	     -1.75771967	      3.12529760	     12.08765936	      0.07448831	      0.97476982	      0.28185439	     27.29033971	     -7.27629255	     -8.56076050	      1.30474700	      6.77975739	    -14.41273513	      6.21558390	    -22.02293584	      2.06714276	     13.40926743	     -0.76683242	     10.82746274	     -9.93514191	      8.39932439	     -0.45267136	     -4.09276613	     -3.59872255
      0.70816667	     -1.75525345	      3.07539545	     12.21787964	      0.08041310	      0.97423142	      0.28222508	     27.25781578	     -7.23256315	     -8.41831202	      0.94451766	      6.86203114	    -14.60459879	      6.19822975	    -22.19227431	      1.88577147	     13.43913289	     -1.07193663	     10.72585739	     -9.84112275	      8.42611701	     -0.43356593	     -4.00603019	     -3.70012802
      0.71233333	     -1.74502032	      3.01038630	     12.34660258	      0.08639579	      0.97374372	      0.28261807	     27.19835566	     -7.16305217	     -8.25822698	      0.59129988	      6.80777510	    -14.90762610	      6.17321331	    -22.33728046	      1.68948296	     13.39003892	     -1.43782179	     10.63923262	     -9.65238469	      8.49612126	     -0.43473235	     -3.91574728	     -3.87756926
      0.71650000	     -1.73873571	      2.93236211	     12.47541244	      0.09246019	      0.97328600	      0.28301116	     27.14379401	     -7.07766464	     -8.13483377	      0.19892904	      6.79780068	    -15.12673193	      6.16650285	    -22.48291603	      1.47958482	     13.38273967	     -1.78975091	     10.50616717	     -9.52420776	      8.55092191	     -0.39256042	     -3.79691540	     -3.96140478
      0.72066667	     -1.73624924	      2.83736952	     12.59479135	      0.09857681	      0.97285646	      0.28344469	     27.08098339	     -6.96283218	     -7.97868474	     -0.18302391	      6.65088658	    -15.42850680	      6.16778833	    -22.59560482	      1.25795960	     13.31369187	     -2.19399564	     10.38157488	     -9.32823535	      8.64890849	     -0.37021439	     -3.67420046	     -4.10937031
      0.72483333	     -1.72954146	      2.75225429	     12.70671731	      0.10472611	      0.97247375	      0.28388118	     27.04082028	     -6.85570522	     -7.92032784	     -0.64496132	      6.54336548	    -15.56025683	      6.17005164	    -22.71314915	      1.05283603	     13.30466425	     -2.60312572	     10.20328383	     -9.29686158	      8.67473194	     -0.34053550	     -3.56913604	     -4.13945755
      0.72900000	     -1.73099112	      2.61519520	     12.81023184	      0.11100714	      0.97211352	      0.28435458	     26.95084181	     -6.67753386	     -7.71049996	     -0.99343035	      6.23871043	    -15.99477484	      6.19770195	    -22.79255077	      0.79558315	     13.16754470	     -3.05279241	     10.04865344	     -9.01690555	      8.81821720	     -0.25787082	     -3.37782177	     -4.33232880
      0.73316667	     -1.72972388	      2.48506505	     12.90441616	      0.11730690	      0.97179718	      0.28483495	     26.89007535	     -6.50444549	     -7.59506767	     -1.42038241	      5.95331178	    -16.28948426	      6.23675416	    -22.86014968	      0.55348816	     13.04412277	     -3.53322869	      9.85923016	     -8.83214011	      8.97368937	     -0.18373187	     -3.21015540	     -4.41258417
      0.73733333	     -1.72110818	      2.36120620	     12.98891034	      0.12360883	      0.97153038	      0.28537138	     26.81992426	     -6.32406834	     -7.42728456	     -1.85036495	      5.60616337	    -16.69401149	      6.32248144	    -22.89994389	      0.32262088	     12.88702603	     -4.08758033	      9.71206221	     -8.59976202	      9.26023454	     -0.13751552	     -3.06363146	     -4.51274521
      0.74150000	     -1.72310029	      2.19865521	     13.06261939	      0.13001752	      0.97128696	      0.28590673	     26.76235399	     -6.10153307	     -7.30415558	     -2.28329816	      5.20954586	    -17.04353237	      6.45166325	    -22.92313083	      0.05924600	     12.71040024	     -4.63679626	      9.49374198	     -8.38810828	      9.65716159	     -0.04272632	     -2.86289312	     -4.59750337
      0.74566667	     -1.74141623	      2.02073256	     13.12606869	      0.13646949	      0.97105868	      0.28646096	     26.73208536	     -5.86137100	     -7.18702914	     -2.73583313	      4.78210179	    -17.38526073	      6.61416891	    -22.90809588	     -0.20872913	     12.52797463	     -5.22161303	      9.24350745	     -8.20075341	     10.13551137	      0.07328990	     -2.64965328	     -4.66300988
      0.74983333	     -1.74433407	      1.84924259	     13.17469653	      0.14294547	      0.97089415	      0.28701124	     26.72362292	     -5.62886788	     -7.19391305	     -3.26974877	      4.38555166	    -17.51443472	      8.32369157	    -22.88949886	     -0.46711536	     12.28156882	     -5.83095418	      8.87781080	     -8.00198683	     15.13289557	      0.17872374	     -2.43792339	     -4.67031879
      0.75400000	     -1.74563180	      1.63881141	     13.18424599	      0.14949823	      0.97076103	      0.28761296	     26.71115128	     -5.33553651	     -7.11358033	     -3.78633068	      3.96573185	    -17.69309688	      8.31861853	    -22.89249642	     -0.74287978	     12.12768512	     -6.40411312	      8.50081092	     -8.04025193	     15.15760568	      0.30023958	     -2.16312585	     -4.72779403
      0.75816667	     -1.76245212	      1.43299654	     13.20293148	      0.15603218	      0.97065725	      0.28825857	     26.70423939	     -5.04461765	     -6.96451902	     -4.28197192	      3.43642302	    -18.15290201	      8.32943687	    -22.80329844	     -1.01349469	     11.86197536	     -7.12487909	      8.20268265	     -7.83399433	     15.27938490	      0.43606677	     -1.92172181	     -4.78671032
      0.76233333	     -1.75935928	      1.21257160	     13.18422200	      0.16263069	      0.97061325	      0.28888970	     26.72216654	     -4.73664510	     -6.93768805	     -4.87024998	      3.01923987	    -18.23971801	      8.33787845	    -22.76153438	     -1.28340625	     11.64155143	     -7.78571062	      7.75497866	     -7.79690282	     15.34542300	      0.56574885	     -1.63454156	     -4.80438008
      0.76650000	     -1.78300315	      0.98750509	     13.15630547	      0.16919535	      0.97055798	      0.28960925	     26.77650191	     -4.41622413	     -6.81078819	     -5.46835848	      2.52681143	    -18.60426111	      8.39179724	    -22.60049357	     -1.55431735	     11.23529225	     -8.62446846	      7.45842972	     -7.41921226	     15.66805450	      0.70994135	     -1.37402069	     -4.81484532
      0.77066667	     -1.78573471	      0.74535629	     13.12937495	      0.17580208	      0.97058601	      0.29028407	     26.82667797	     -4.08923031	     -6.81465321	     -6.11201409	      2.14252388	    -18.69502428	      9.15265810	    -22.45470747	     -1.84373970	     10.86461124	     -9.44935987	      6.95861287	     -7.24919839	     20.20930034	      0.83971672	     -1.07543687	     -4.82185400
      0.77483333	     -1.80888512	      0.50079344	     13.06029829	      0.18241730	      0.97061012	      0.29101639	     26.92101204	     -3.74657511	     -6.73597355	     -6.79706950	      1.76721903	    -18.85694602	      9.14555429	    -22.28252863	     -2.10743782	     10.52302239	    -10.30071700	      6.50087029	     -7.13417451	     20.27220356	      1.00563548	     -0.77253473	     -4.79730895
      0.77900000	     -1.82079991	      0.25452470	     12.98544553	      0.18902236	      0.97068887	      0.29176147	     27.01500209	     -3.40303029	     -6.69009791	     -7.51224989	      1.45714708	    -18.92744804	      9.14371600	    -22.07926669	     -2.37539566	     10.12543328	    -11.22649361	      6.00488661	     -6.93843140	     20.39552791	      1.15235769	     -0.46677793	     -4.77222080
